<svg xmlns="http://www.w3.org/2000/svg" viewBox="0 0 96 93.6"><defs><style>.cls-1{fill:#ff7c00;}.cls-2{fill:#261300;}.cls-3{fill:#fff;}</style></defs><title>Illustrator_1</title><g id="Layer_2" data-name="Layer 2"><g id="Layer_1-2" data-name="Layer 1"><rect class="cls-1" width="96" height="93.6" rx="17.6" ry="17.6"/><rect class="cls-2" x="4" y="4" width="88" height="85.6" rx="14.4" ry="14.4"/><path class="cls-3" d="M33.28,53.76l-3.2,12c0,.32-.16.48-.64.48H23.52c-.32,0-.48-.16-.32-.64L34.56,25.76a12.53,12.53,0,0,0,.32-3.36c0-.32.16-.32.32-.32h8.32c.32,0,.32,0,.48.32L56.8,65.6c0,.32,0,.48-.32.48H49.92c-.32,0-.48,0-.64-.32l-3.36-12Zm11.2-6.4c-1.12-4.48-3.84-14.08-4.8-18.88h0c-.8,4.64-3,12.64-4.64,18.88ZM62.4,25.12a4.16,4.16,0,1,1,8.32,0,3.86,3.86,0,0,1-4.16,4.16C64.16,29.12,62.4,27.68,62.4,25.12Zm.48,9.12a.42.42,0,0,1,.48-.48H69.6a.42.42,0,0,1,.48.48V65.76c0,.32,0,.48-.48.48H63.36a.42.42,0,0,1-.48-.48Z"/></g></g></svg>