<svg xmlns="http://www.w3.org/2000/svg" viewBox="0 0 96 93.6"><defs><style>.cls-1{fill:#ea77ff;}.cls-2{fill:#261300;}.cls-3{fill:#fff;}</style></defs><title>Premiere Pro_1</title><g id="Layer_2" data-name="Layer 2"><g id="Layer_1-2" data-name="Layer 1"><rect class="cls-1" width="96" height="93.6" rx="17.6" ry="17.6"/><rect class="cls-2" x="4" y="4" width="88" height="85.6" rx="14.4" ry="14.4"/><path class="cls-3" d="M25.12,22.24c0-.32,0-.48.32-.48,2.56-.16,6.4-.16,10.24-.16,11,0,15.84,6.08,15.84,13.92,0,10.24-7.36,14.56-16.32,14.56h-3V65.44a.42.42,0,0,1-.48.48H25.6a.42.42,0,0,1-.48-.48Zm7.2,21.28h3.2c4.64,0,9.12-1.6,9.12-8,0-5.12-3.2-7.68-8.48-7.68a24.92,24.92,0,0,0-3.84.16Zm25.6-3.68c0-.48,0-1.6-.16-3.84,0-.32,0-.32.32-.48A41.22,41.22,0,0,1,72.64,32.8c.32,0,.48,0,.48.32v5.76c0,.32-.16.32-.48.32a23.62,23.62,0,0,0-7.52.8V65.12a.42.42,0,0,1-.48.48H58.4a.42.42,0,0,1-.48-.48Z"/></g></g></svg>