<svg width="30" height="30" viewBox="0 0 30 30" fill="none" xmlns="http://www.w3.org/2000/svg">
<g clip-path="url(#clip0)">
<path d="M9.7207 23.2852C9.7207 23.4023 9.58594 23.4961 9.41602 23.4961C9.22266 23.5137 9.08789 23.4199 9.08789 23.2852C9.08789 23.168 9.22266 23.0742 9.39258 23.0742C9.56836 23.0566 9.7207 23.1504 9.7207 23.2852ZM7.89844 23.0215C7.85742 23.1387 7.97461 23.2734 8.15039 23.3086C8.30273 23.3672 8.47852 23.3086 8.51367 23.1914C8.54883 23.0742 8.4375 22.9395 8.26172 22.8867C8.10938 22.8457 7.93945 22.9043 7.89844 23.0215ZM10.4883 22.9219C10.3184 22.9629 10.2012 23.0742 10.2187 23.209C10.2363 23.3262 10.3887 23.4023 10.5645 23.3613C10.7344 23.3203 10.8516 23.209 10.834 23.0918C10.8164 22.9805 10.6582 22.9043 10.4883 22.9219ZM14.3438 0.46875C6.2168 0.46875 0 6.63867 0 14.7656C0 21.2637 4.08984 26.8242 9.93164 28.7813C10.6816 28.916 10.9453 28.4531 10.9453 28.0723C10.9453 27.709 10.9277 25.7051 10.9277 24.4746C10.9277 24.4746 6.82617 25.3535 5.96484 22.7285C5.96484 22.7285 5.29687 21.0234 4.33594 20.584C4.33594 20.584 2.99414 19.6641 4.42969 19.6816C4.42969 19.6816 5.88867 19.7988 6.69141 21.1934C7.97461 23.4551 10.125 22.8047 10.9629 22.418C11.0977 21.4805 11.4785 20.8301 11.9004 20.4434C8.625 20.0801 5.32031 19.6055 5.32031 13.9687C5.32031 12.3574 5.76563 11.5488 6.70313 10.5176C6.55078 10.1367 6.05273 8.56641 6.85547 6.53906C8.08008 6.1582 10.8984 8.12109 10.8984 8.12109C12.0703 7.79297 13.3301 7.62305 14.5781 7.62305C15.8262 7.62305 17.0859 7.79297 18.2578 8.12109C18.2578 8.12109 21.0762 6.15234 22.3008 6.53906C23.1035 8.57227 22.6055 10.1367 22.4531 10.5176C23.3906 11.5547 23.9648 12.3633 23.9648 13.9687C23.9648 19.623 20.5137 20.0742 17.2383 20.4434C17.7773 20.9062 18.2344 21.7852 18.2344 23.1621C18.2344 25.1367 18.2168 27.5801 18.2168 28.0605C18.2168 28.4414 18.4863 28.9043 19.2305 28.7695C25.0898 26.8242 29.0625 21.2637 29.0625 14.7656C29.0625 6.63867 22.4707 0.46875 14.3438 0.46875ZM5.69531 20.6777C5.61914 20.7363 5.63672 20.8711 5.73633 20.9824C5.83008 21.0762 5.96484 21.1172 6.04102 21.041C6.11719 20.9824 6.09961 20.8477 6 20.7363C5.90625 20.6426 5.77148 20.6016 5.69531 20.6777ZM5.0625 20.2031C5.02148 20.2793 5.08008 20.373 5.19727 20.4316C5.29102 20.4902 5.4082 20.4727 5.44922 20.3906C5.49023 20.3145 5.43164 20.2207 5.31445 20.1621C5.19727 20.127 5.10352 20.1445 5.0625 20.2031ZM6.96094 22.2891C6.86719 22.3652 6.90234 22.541 7.03711 22.6523C7.17187 22.7871 7.3418 22.8047 7.41797 22.7109C7.49414 22.6348 7.45898 22.459 7.3418 22.3477C7.21289 22.2129 7.03711 22.1953 6.96094 22.2891ZM6.29297 21.4277C6.19922 21.4863 6.19922 21.6387 6.29297 21.7734C6.38672 21.9082 6.54492 21.9668 6.62109 21.9082C6.71484 21.832 6.71484 21.6797 6.62109 21.5449C6.53906 21.4102 6.38672 21.3516 6.29297 21.4277Z" fill="white"/>
</g>
<defs>
<clipPath id="clip0">
<rect width="29.0625" height="30" fill="white"/>
</clipPath>
</defs>
</svg>
