<svg width="30" height="30" viewBox="0 0 30 30" fill="none" xmlns="http://www.w3.org/2000/svg">
<path d="M27.5918 0H2.11582C0.948469 0 0 0.970982 0 2.16295V27.8371C0 29.029 0.948469 30 2.11582 30H27.5918C28.7592 30 29.7143 29.029 29.7143 27.8371V2.16295C29.7143 0.970982 28.7592 0 27.5918 0ZM8.98061 25.7143H4.57653V11.3973H8.98724V25.7143H8.98061ZM6.77857 9.44196C5.36582 9.44196 4.225 8.28348 4.225 6.86384C4.225 5.4442 5.36582 4.28571 6.77857 4.28571C8.18469 4.28571 9.33214 5.4442 9.33214 6.86384C9.33214 8.29018 8.19133 9.44196 6.77857 9.44196V9.44196ZM25.4893 25.7143H21.0852V18.75C21.0852 17.0893 21.052 14.9531 18.7969 14.9531C16.502 14.9531 16.1505 16.7612 16.1505 18.6295V25.7143H11.7464V11.3973H15.9714V13.3527H16.0311C16.6214 12.2277 18.0607 11.0424 20.2031 11.0424C24.6602 11.0424 25.4893 14.0089 25.4893 17.8661V25.7143V25.7143Z" fill="white"/>
</svg>
