<svg width="41" height="30" viewBox="0 0 41 30" fill="none" xmlns="http://www.w3.org/2000/svg">
<path d="M4.40144 0H37.2139C39.305 0 41 1.67891 41 3.75V26.25C41 28.3211 39.305 30 37.2139 30H4.40144C2.31043 30 0.615383 28.3211 0.615383 26.25V3.75C0.615383 1.67891 2.31043 0 4.40144 0ZM4.40144 3.75V6.93789C6.17 8.36437 8.98951 10.5825 15.0172 15.2574C16.3455 16.2923 18.9768 18.7787 20.8077 18.7497C22.6383 18.779 25.2704 16.292 26.5982 15.2574C32.6249 10.5832 35.4451 8.36461 37.2139 6.93789V3.75H4.40144ZM37.2139 26.25V11.7498C35.4066 13.1757 32.8435 15.1766 28.9368 18.2066C27.2128 19.5507 24.1937 22.518 20.8077 22.4999C17.4383 22.518 14.4574 19.5938 12.6793 18.2072C8.77268 15.1773 6.20889 13.1759 4.40144 11.7499V26.25H37.2139Z" fill="white"/>
</svg>
